<svg width="500" height="500" viewBox="0 0 680 680" role="img" xmlns="http://www.w3.org/2000/svg">
  <title>Task Manager app icon</title>
  <desc>Task Manager app icon with brand colors featuring a checklist, priority indicators, and JIRA-style styling</desc>

  <defs>
    <linearGradient id="bgGrad" x1="0" y1="0" x2="1" y2="1">
      <stop offset="0%" stop-color="#F95E4A"/>
      <stop offset="100%" stop-color="#FB8429"/>
    </linearGradient>
  </defs>

  <rect x="90" y="90" width="500" height="500" rx="110" fill="url(#bgGrad)"/>
  <ellipse cx="240" cy="215" rx="140" ry="85" fill="#FFFFFF" fill-opacity="0.10"/>
  <rect x="175" y="175" width="330" height="360" rx="28" fill="#FAFAFA"/>
  <rect x="175" y="175" width="330" height="52" rx="28" fill="#0F3133"/>
  <rect x="175" y="203" width="330" height="24" fill="#0F3133"/>
  <circle cx="210" cy="201" r="8" fill="#F95E4A"/>
  <circle cx="234" cy="201" r="8" fill="#FDD219"/>
  <circle cx="258" cy="201" r="8" fill="#2AEDE5"/>
  <rect x="278" y="191" width="130" height="20" rx="5" fill="#FFFFFF" fill-opacity="0.12"/>
  <line x1="195" y1="248" x2="485" y2="248" stroke="#F2F0F1" stroke-width="1.5"/>
  <rect x="195" y="258" width="52" height="16" rx="8" fill="#F95E4A"/>
  <rect x="254" y="258" width="52" height="16" rx="8" fill="#FDD219"/>
  <rect x="313" y="258" width="52" height="16" rx="8" fill="#2AEDE5"/>
  <rect x="195" y="292" width="22" height="22" rx="6" fill="#FB8429"/>
  <polyline points="201,303 206,309 215,297" fill="none" stroke="#FFFFFF" stroke-width="2.5" stroke-linecap="round" stroke-linejoin="round"/>
  <circle cx="232" cy="303" r="5" fill="#F95E4A"/>
  <rect x="244" y="297" width="120" height="11" rx="5" fill="#F2F0F1"/>
  <rect x="374" y="295" width="42" height="15" rx="5" fill="#FDD219" fill-opacity="0.35"/>
  <rect x="195" y="330" width="22" height="22" rx="6" fill="#FB8429"/>
  <polyline points="201,341 206,347 215,335" fill="none" stroke="#FFFFFF" stroke-width="2.5" stroke-linecap="round" stroke-linejoin="round"/>
  <circle cx="232" cy="341" r="5" fill="#FDD219"/>
  <rect x="244" y="335" width="100" height="11" rx="5" fill="#F2F0F1"/>
  <rect x="354" y="333" width="42" height="15" rx="5" fill="#2AEDE5" fill-opacity="0.35"/>
  <rect x="195" y="368" width="22" height="22" rx="6" fill="none" stroke="#B2FFF6" stroke-width="2"/>
  <circle cx="232" cy="379" r="5" fill="#2AEDE5"/>
  <rect x="244" y="373" width="130" height="11" rx="5" fill="#F2F0F1"/>
  <rect x="384" y="371" width="36" height="15" rx="5" fill="#F95E4A" fill-opacity="0.2"/>
  <rect x="195" y="406" width="22" height="22" rx="6" fill="none" stroke="#B2FFF6" stroke-width="2"/>
  <circle cx="232" cy="417" r="5" fill="#2AEDE5"/>
  <rect x="244" y="411" width="90" height="11" rx="5" fill="#F2F0F1"/>
  <rect x="195" y="444" width="22" height="22" rx="6" fill="none" stroke="#B2FFF6" stroke-width="2"/>
  <circle cx="232" cy="455" r="5" fill="#FDD219"/>
  <rect x="244" y="449" width="110" height="11" rx="5" fill="#F2F0F1"/>
  <rect x="175" y="499" width="330" height="36" rx="28" fill="#0F3133"/>
  <rect x="175" y="499" width="330" height="18" fill="#0F3133"/>
  <rect x="290" y="510" width="100" height="6" rx="3" fill="#2AEDE5" fill-opacity="0.6"/>
</svg>
